<svg id="mrxibtcp4xmb60bh" viewBox="0 0 1638 1453" xmlns="http://www.w3.org/2000/svg" xmlns:xlink="http://www.w3.org/1999/xlink"><g id="mrxibtcp4xmb60bh_translate"><g transform="matrix(1,0,0,1,0,0)"><g id="mrxibtcp4xmb60bh" opacity="1" style="mix-blend-mode:normal"><g><defs><clipPath id="mrxibtcp4xmb60bh_clipPath" x="-50%" y="-50%" width="200%" height="200%"><path id="mrxibtcp4xmb60bh_fill_path" d="M0.01,0h1637.98c0.00552,0 0.01,0.00448 0.01,0.01v1452.98c0,0.00552 -0.00448,0.01 -0.01,0.01h-1637.98c-0.00552,0 -0.01,-0.00448 -0.01,-0.01v-1452.98c0,-0.00552 0.00448,-0.01 0.01,-0.01z" fill="white" clip-rule="nonzero"></path></clipPath></defs><g clip-path="url(#mrxibtcp4xmb60bh_clipPath)"><path id="mrxibtcp4xmb60bh_fill_path" d="M0.01,0h1637.98c0.00552,0 0.01,0.00448 0.01,0.01v1452.98c0,0.00552 -0.00448,0.01 -0.01,0.01h-1637.98c-0.00552,0 -0.01,-0.00448 -0.01,-0.01v-1452.98c0,-0.00552 0.00448,-0.01 0.01,-0.01z" fill-rule="nonzero" fill="rgb(255, 255, 255)" fill-opacity="0" style="mix-blend-mode:normal"></path><g id="mrxibtcs744s43bc_translate"><g transform="matrix(1,0,0,1,327.99999999999994,235)"><g id="mrxibtcs744s43bc" opacity="1" style="mix-blend-mode:normal"><g><g><g style="mix-blend-mode:normal"><defs><linearGradient id="mrxibtcs744s43bcpf0" x1="0" y1="0.5" x2="1" y2="0.5" gradientTransform="matrix(6.123234262925839e-17,1,-1,6.123234262925839e-17,1,-6.123234262925839e-17)" gradientUnits="objectBoundingBox"><stop offset="0%" stop-opacity="1" stop-color="rgb(57, 57, 57)"></stop><stop offset="44.71%" stop-opacity="1" stop-color="rgb(57, 57, 57)"></stop><stop offset="100%" stop-opacity="1" stop-color="rgb(57, 57, 57)"></stop></linearGradient></defs><path id="mrxibtcs744s43bc_fill_path" d="M409.29129,1.25c-0.259,0.688 -0.58199,35 -0.71899,76.25l-0.24799,75l-152,0.5l-151.99999,0.5v54v54l134.75001,0.25403c74.112,0.139 134.74998,0.51897 134.74998,0.84497c0,0.782 -4.96898,9.80798 -8.32898,15.13098c-1.469,2.327 -2.67102,4.47403 -2.67102,4.77203c0,0.297 -1.05402,2.21898 -2.34302,4.26898c-1.289,2.051 -4.30796,6.879 -6.70996,10.729c-4.386,7.031 -23.539,34.73202 -27.388,39.61102c-1.132,1.436 -2.73402,3.61997 -3.55902,4.85297c-1.482,2.215 -14.64799,18.69199 -17.18799,21.51099c-0.722,0.8 -1.76201,2.04203 -2.31201,2.75903c-0.55,0.717 -4.503,5.438 -8.785,10.492c-20.487,24.182 -45.08799,49.28898 -74.37199,75.90198c-9.563,8.69 -33.57199,28.47401 -43.84399,36.12701c-0.55,0.41 -3.7,2.76298 -7,5.22998c-7.126,5.327 -13.68799,10.10202 -18.49899,13.46002c-1.925,1.344 -5.75,4.05501 -8.5,6.02301c-3.878,2.777 -25.32801,17.20197 -36.50001,24.54797c-11.252,7.397 -37.937,23.77801 -51,31.30701c-1.925,1.109 -5.3,3.05802 -7.5,4.33002c-2.2,1.273 -4.9,2.76496 -6,3.31696c-1.1,0.551 -6.05,3.25502 -11,6.00702c-4.95,2.753 -13.66799,7.36798 -19.37399,10.25598c-5.706,2.887 -10.598,5.83302 -10.871,6.54602c-0.274,0.712 0.18499,2.066 1.01999,3.008c1.848,2.085 14.72501,21.21604 14.72501,21.87604c0,0.259 1.125,1.94499 2.5,3.74799c1.375,1.803 2.5,3.74999 2.5,4.32599c0,0.577 0.675,1.308 1.5,1.625c0.825,0.316 1.5,1.05797 1.5,1.64697c0,0.59 0.841,2.29101 1.868,3.78101c3.782,5.484 13.62301,20.78501 14.92601,23.20801c0.74,1.374 1.91999,3.174 2.62299,4c0.704,0.826 1.55799,2.29001 1.89999,3.25201c0.341,0.962 1.08401,1.75 1.65201,1.75c0.567,0 1.03101,0.48898 1.03101,1.08698c0,1.215 6.079,10.22603 7.25,10.74603c0.413,0.184 0.75,0.81601 0.75,1.40601c0,0.59 1.125,2.54698 2.5,4.34998c1.375,1.803 2.5,3.68803 2.5,4.18903c0,0.502 0.889,1.71597 1.974,2.69897c1.086,0.983 2.27499,2.73099 2.64099,3.88599c1.257,3.96 4.69702,7.63702 7.14502,7.63702c2.343,0 11.42,-4.67101 12.073,-6.21301c0.184,-0.433 0.71198,-0.78699 1.17398,-0.78699c0.803,0 17.40901,-9.613 19.49301,-11.284c0.55,-0.441 3.31899,-2.24503 6.15399,-4.00903c11.007,-6.849 14.81201,-9.26197 16.88001,-10.70697c1.181,-0.825 3.906,-2.71197 6.056,-4.19397c2.151,-1.482 6.16,-4.30702 8.91,-6.27802c2.75,-1.971 6.125,-4.34602 7.5,-5.27802c8.946,-6.062 57.79,-44.511 60.5,-47.625c0.55,-0.632 3.7,-3.38498 7,-6.11798c23.611,-19.557 72.15898,-69.82604 95.75798,-99.15204c0.683,-0.849 2.163,-2.51297 3.289,-3.69897c1.125,-1.186 4.25403,-5.08101 6.95203,-8.65601c2.699,-3.575 8.41498,-11.133 12.70398,-16.797c4.288,-5.663 7.797,-10.68802 7.797,-11.16602c0,-0.479 0.36698,-1.01998 0.81598,-1.20398c0.772,-0.315 6.42204,-8.23401 16.29004,-22.83301c2.417,-3.575 4.73098,-6.65001 5.14398,-6.83301c0.413,-0.184 0.75,-0.73702 0.75,-1.23102c0,-0.494 2.25,-4.24697 5,-8.33997c2.75,-4.094 5,-7.89004 5,-8.43604c0,-0.546 0.341,-1.14297 0.758,-1.32697c0.791,-0.347 6.96102,-10.68001 13.03802,-21.83301c1.948,-3.575 3.80399,-6.725 4.12299,-7c0.663,-0.571 2.292,-3.468 7.729,-13.75c2.108,-3.987 4.17502,-7.25 4.59302,-7.25c0.417,0 0.76695,12.263 0.77795,27.25c0.01,14.987 0.08903,55.825 0.17603,90.75c0.086,34.925 -0.16803,64.4 -0.56403,65.5c-0.61,1.691 -24.16598,17.88398 -43.63098,29.99298c-3.025,1.882 -6.04401,3.89099 -6.70801,4.46399c-0.664,0.574 -1.564,1.05104 -2,1.06104c-0.756,0.018 -8.60602,4.959 -10.86902,6.841c-0.592,0.493 -2.05196,1.20598 -3.24396,1.58398c-1.192,0.378 -2.73203,1.23001 -3.42303,1.89301c-0.691,0.662 -8.00598,5.19302 -16.25598,10.06702c-8.25,4.875 -16.125,9.58999 -17.5,10.47699c-1.375,0.887 -3.625,2.17498 -5,2.86298c-1.375,0.688 -4.075,2.209 -6,3.38c-1.925,1.172 -6.875,3.95998 -11,6.19598c-4.125,2.237 -8.09501,4.65502 -8.82101,5.37402c-0.727,0.719 -1.76398,1.30701 -2.30298,1.30701c-0.838,0 -13.24099,6.93799 -23.37599,13.07599c-1.65,0.999 -4.125,2.44902 -5.5,3.22302c-1.375,0.773 -7.9,4.52698 -14.5,8.34198c-6.6,3.815 -17.288,9.58001 -23.75,12.81201c-12.22,6.111 -13.64801,7.68802 -10.38901,11.46802c1.557,1.806 13.72202,21.31198 15.64102,25.07898c0.701,1.375 3.615,6.1 6.478,10.5c6.777,10.418 10.50899,16.429 15.52499,25c2.252,3.85 4.96,8.35 6.017,10c1.057,1.65 2.847,4.575 3.978,6.5c1.131,1.925 2.86499,4.85 3.85199,6.5c2.961,4.945 5.48198,4.41998 17.68898,-3.68402c6.027,-4.002 11.40901,-7.62696 11.95901,-8.05396c0.55,-0.427 4.6,-3.24505 9,-6.26105c4.4,-3.017 10.378,-7.117 13.284,-9.112c2.906,-1.996 7.70002,-5.48697 10.65302,-7.75897c2.954,-2.271 6.36402,-4.805 7.58002,-5.63c1.215,-0.825 3.65996,-2.625 5.43396,-4c1.773,-1.375 4.491,-3.4 6.039,-4.5c1.548,-1.1 3.54003,-2.675 4.42603,-3.5c0.886,-0.825 4.75498,-4.13098 8.59698,-7.34698c19.706,-16.492 46.54001,-41.917 62.83801,-59.539c2.668,-2.884 5.04402,-5.05299 5.27802,-4.81799c0.235,0.235 0.40899,42.73799 0.38599,94.45099c-0.022,51.713 0.23898,94.75 0.57898,95.638c0.559,1.457 5.54301,1.61499 50.90601,1.61499c44.932,0 50.35101,-0.16803 50.89301,-1.58203c0.334,-0.87 0.60699,-43.84494 0.60699,-95.49994c0,-61.945 0.34003,-93.91803 1.00003,-93.91803c0.55,0 1,0.35198 1,0.78198c0,0.879 34.80802,35.65801 42.41302,42.37701c2.701,2.388 6.076,5.39699 7.5,6.68799c1.423,1.291 4.80499,4.216 7.51599,6.5c2.712,2.284 7.033,6.06602 9.604,8.40302c2.571,2.337 4.94198,4.25 5.26898,4.25c0.327,0 1.79902,1.116 3.27002,2.479c9.577,8.875 54.72298,40.99899 72.72198,51.745c5.916,3.532 7.112,3.91199 9.25,2.93799c1.351,-0.616 2.45599,-1.65802 2.45599,-2.31702c0,-0.659 1.97603,-4.15597 4.39203,-7.77197c4.421,-6.616 12.60797,-19.996 12.60797,-20.604c0,-0.18 1.8,-3.03798 4,-6.34998c2.2,-3.312 4,-6.23001 4,-6.48401c0,-0.254 3.825,-6.60202 8.5,-14.10602c4.675,-7.505 8.5,-13.83597 8.5,-14.06897c0,-0.234 2.49402,-4.10801 5.54102,-8.60901c3.048,-4.502 5.404,-8.89599 5.237,-9.76599c-0.305,-1.582 -2.18301,-2.767 -15.27802,-9.633c-3.85,-2.018 -7.45,-4.014 -8,-4.435c-0.55,-0.42 -4.15,-2.47101 -8,-4.55701c-3.85,-2.087 -8.8,-4.78803 -11,-6.00403c-2.2,-1.215 -7.15,-3.91697 -11,-6.00397c-3.85,-2.087 -8.8,-4.91901 -11,-6.29401c-2.2,-1.375 -6.43898,-3.838 -9.41998,-5.474c-2.981,-1.637 -6.96703,-4.02504 -8.85803,-5.30804c-1.89,-1.283 -5.75098,-3.5 -8.57898,-4.927c-2.829,-1.428 -6.94301,-3.68395 -9.14301,-5.01495c-2.2,-1.331 -5.35,-3.11604 -7,-3.96704c-1.65,-0.852 -4.67502,-2.542 -6.72302,-3.758c-2.047,-1.215 -8.347,-4.87497 -14,-8.13397c-5.652,-3.259 -10.42699,-6.296 -10.60999,-6.75c-0.184,-0.454 -0.713,-0.82501 -1.177,-0.82501c-0.464,0 -4.58899,-2.306 -9.16699,-5.125c-15.82,-9.74 -21.02898,-12.875 -21.39398,-12.875c-0.201,0 -2.96801,-1.74702 -6.14801,-3.88202c-3.179,-2.135 -13.02999,-8.621 -21.89099,-14.414c-8.86,-5.792 -16.40004,-11.28798 -16.75504,-12.21198c-0.355,-0.925 -0.64903,-31.90097 -0.65503,-68.83698c-0.01,-67.972 0.80502,-115.65503 1.97702,-115.65503c0.353,0 1.20405,1.55497 1.89105,3.45697c0.688,1.901 6.06499,11.79504 11.95099,21.98804c5.886,10.193 11.37799,19.77497 12.20599,21.29297c0.828,1.519 2.965,4.92201 4.75,7.56201c1.785,2.64 3.245,5.01701 3.245,5.28101c0,0.53 12.52298,19.46101 19.13098,28.91901c12.372,17.711 42.30802,56.583 50.44202,65.5c1.756,1.925 7.84898,8.675 13.53998,15c18.684,20.766 38.42903,40.971 52.73303,53.961c5.124,4.653 10.323,9.378 11.552,10.5c2.11,1.924 12.11999,10.78299 17.60199,15.57599c3.978,3.479 20.96701,17.18503 29.69501,23.95703c19.799,15.364 44.87799,32.95195 66.80499,46.85095c2.75,1.743 5.675,3.62006 6.5,4.17206c6.407,4.282 26.13595,16.291 28.77295,17.513c3.358,1.555 7.22705,0.68198 7.22705,-1.63202c0,-0.567 1.125,-2.50602 2.5,-4.30902c1.375,-1.803 2.5,-3.59201 2.5,-3.97601c0,-0.384 1.8,-3.13498 4,-6.11298c2.2,-2.978 4,-5.678 4,-6c0,-0.322 1.688,-2.945 3.75,-5.828c2.063,-2.884 4.29897,-6.12697 4.96997,-7.20697c7.073,-11.387 8.95309,-14.23605 10.49109,-15.90405c0.984,-1.066 1.78894,-2.24396 1.78894,-2.61896c0,-0.613 15.76405,-25.02402 17.72205,-27.44202c0.445,-0.55 2.36299,-3.475 4.26099,-6.5c1.898,-3.025 3.69101,-5.725 3.98401,-6c2.219,-2.082 7.22799,-10.76097 7.36499,-12.75897c0.168,-2.463 -2.19003,-4.09904 -16.83203,-11.68604c-1.65,-0.855 -4.8,-2.60399 -7,-3.88599c-2.2,-1.281 -6.475,-3.70002 -9.5,-5.37402c-7.096,-3.928 -31.69995,-18.02996 -35.16895,-20.15796c-1.468,-0.9 -7.093,-4.25304 -12.5,-7.44904c-27.272,-16.124 -78.83005,-51.11202 -88.33105,-59.94202c-0.825,-0.767 -3.3,-2.70397 -5.5,-4.30597c-8.17,-5.947 -31.81398,-25.008 -36.51898,-29.44c-0.876,-0.825 -5.15501,-4.65 -9.51001,-8.5c-16.135,-14.265 -51.93401,-49.682 -59.12201,-58.492c-1.567,-1.92 -4.199,-4.86497 -5.849,-6.54297c-1.65,-1.679 -6.12602,-6.85803 -9.94702,-11.50903c-3.822,-4.651 -8.23699,-9.844 -9.81299,-11.539c-1.576,-1.696 -3.62498,-4.22599 -4.55298,-5.62299c-0.928,-1.396 -5.537,-7.65902 -10.242,-13.91602c-11.204,-14.902 -20.71703,-28.42199 -32.98303,-46.87799c-0.843,-1.268 -9.158,-15.48398 -14.034,-23.99298c-0.785,-1.371 -2.21598,-3.56901 -3.17798,-4.88501c-3.988,-5.45 -12.49602,-5.12201 132.69098,-5.12201c88.024,0 134.65299,-0.34302 135.05499,-0.99402c1.316,-2.129 0.082,-105.82797 -1.276,-107.18597c-0.447,-0.447 -68.51697,-0.92702 -151.26697,-1.06702l-150.453,-0.25299l-0.51602,-76c-0.283,-41.8 -0.621,-76.113 -0.75,-76.25c-0.129,-0.137 -22.97301,-0.25 -50.76501,-0.25c-39.508,0 -50.63401,0.273 -51.00201,1.25z" fill-rule="evenodd" fill="url(#mrxibtcs744s43bcpf0)"></path></g><defs><clipPath id="mrxibtcs744s43bc_stroke_clip_path" clipPathUnits="userSpaceOnUse"><path id="mrxibtcs744s43bc_stroke_path" d="M409.29129,1.25c-0.259,0.688 -0.58199,35 -0.71899,76.25l-0.24799,75l-152,0.5l-151.99999,0.5v54v54l134.75001,0.25403c74.112,0.139 134.74998,0.51897 134.74998,0.84497c0,0.782 -4.96898,9.80798 -8.32898,15.13098c-1.469,2.327 -2.67102,4.47403 -2.67102,4.77203c0,0.297 -1.05402,2.21898 -2.34302,4.26898c-1.289,2.051 -4.30796,6.879 -6.70996,10.729c-4.386,7.031 -23.539,34.73202 -27.388,39.61102c-1.132,1.436 -2.73402,3.61997 -3.55902,4.85297c-1.482,2.215 -14.64799,18.69199 -17.18799,21.51099c-0.722,0.8 -1.76201,2.04203 -2.31201,2.75903c-0.55,0.717 -4.503,5.438 -8.785,10.492c-20.487,24.182 -45.08799,49.28898 -74.37199,75.90198c-9.563,8.69 -33.57199,28.47401 -43.84399,36.12701c-0.55,0.41 -3.7,2.76298 -7,5.22998c-7.126,5.327 -13.68799,10.10202 -18.49899,13.46002c-1.925,1.344 -5.75,4.05501 -8.5,6.02301c-3.878,2.777 -25.32801,17.20197 -36.50001,24.54797c-11.252,7.397 -37.937,23.77801 -51,31.30701c-1.925,1.109 -5.3,3.05802 -7.5,4.33002c-2.2,1.273 -4.9,2.76496 -6,3.31696c-1.1,0.551 -6.05,3.25502 -11,6.00702c-4.95,2.753 -13.66799,7.36798 -19.37399,10.25598c-5.706,2.887 -10.598,5.83302 -10.871,6.54602c-0.274,0.712 0.18499,2.066 1.01999,3.008c1.848,2.085 14.72501,21.21604 14.72501,21.87604c0,0.259 1.125,1.94499 2.5,3.74799c1.375,1.803 2.5,3.74999 2.5,4.32599c0,0.577 0.675,1.308 1.5,1.625c0.825,0.316 1.5,1.05797 1.5,1.64697c0,0.59 0.841,2.29101 1.868,3.78101c3.782,5.484 13.62301,20.78501 14.92601,23.20801c0.74,1.374 1.91999,3.174 2.62299,4c0.704,0.826 1.55799,2.29001 1.89999,3.25201c0.341,0.962 1.08401,1.75 1.65201,1.75c0.567,0 1.03101,0.48898 1.03101,1.08698c0,1.215 6.079,10.22603 7.25,10.74603c0.413,0.184 0.75,0.81601 0.75,1.40601c0,0.59 1.125,2.54698 2.5,4.34998c1.375,1.803 2.5,3.68803 2.5,4.18903c0,0.502 0.889,1.71597 1.974,2.69897c1.086,0.983 2.27499,2.73099 2.64099,3.88599c1.257,3.96 4.69702,7.63702 7.14502,7.63702c2.343,0 11.42,-4.67101 12.073,-6.21301c0.184,-0.433 0.71198,-0.78699 1.17398,-0.78699c0.803,0 17.40901,-9.613 19.49301,-11.284c0.55,-0.441 3.31899,-2.24503 6.15399,-4.00903c11.007,-6.849 14.81201,-9.26197 16.88001,-10.70697c1.181,-0.825 3.906,-2.71197 6.056,-4.19397c2.151,-1.482 6.16,-4.30702 8.91,-6.27802c2.75,-1.971 6.125,-4.34602 7.5,-5.27802c8.946,-6.062 57.79,-44.511 60.5,-47.625c0.55,-0.632 3.7,-3.38498 7,-6.11798c23.611,-19.557 72.15898,-69.82604 95.75798,-99.15204c0.683,-0.849 2.163,-2.51297 3.289,-3.69897c1.125,-1.186 4.25403,-5.08101 6.95203,-8.65601c2.699,-3.575 8.41498,-11.133 12.70398,-16.797c4.288,-5.663 7.797,-10.68802 7.797,-11.16602c0,-0.479 0.36698,-1.01998 0.81598,-1.20398c0.772,-0.315 6.42204,-8.23401 16.29004,-22.83301c2.417,-3.575 4.73098,-6.65001 5.14398,-6.83301c0.413,-0.184 0.75,-0.73702 0.75,-1.23102c0,-0.494 2.25,-4.24697 5,-8.33997c2.75,-4.094 5,-7.89004 5,-8.43604c0,-0.546 0.341,-1.14297 0.758,-1.32697c0.791,-0.347 6.96102,-10.68001 13.03802,-21.83301c1.948,-3.575 3.80399,-6.725 4.12299,-7c0.663,-0.571 2.292,-3.468 7.729,-13.75c2.108,-3.987 4.17502,-7.25 4.59302,-7.25c0.417,0 0.76695,12.263 0.77795,27.25c0.01,14.987 0.08903,55.825 0.17603,90.75c0.086,34.925 -0.16803,64.4 -0.56403,65.5c-0.61,1.691 -24.16598,17.88398 -43.63098,29.99298c-3.025,1.882 -6.04401,3.89099 -6.70801,4.46399c-0.664,0.574 -1.564,1.05104 -2,1.06104c-0.756,0.018 -8.60602,4.959 -10.86902,6.841c-0.592,0.493 -2.05196,1.20598 -3.24396,1.58398c-1.192,0.378 -2.73203,1.23001 -3.42303,1.89301c-0.691,0.662 -8.00598,5.19302 -16.25598,10.06702c-8.25,4.875 -16.125,9.58999 -17.5,10.47699c-1.375,0.887 -3.625,2.17498 -5,2.86298c-1.375,0.688 -4.075,2.209 -6,3.38c-1.925,1.172 -6.875,3.95998 -11,6.19598c-4.125,2.237 -8.09501,4.65502 -8.82101,5.37402c-0.727,0.719 -1.76398,1.30701 -2.30298,1.30701c-0.838,0 -13.24099,6.93799 -23.37599,13.07599c-1.65,0.999 -4.125,2.44902 -5.5,3.22302c-1.375,0.773 -7.9,4.52698 -14.5,8.34198c-6.6,3.815 -17.288,9.58001 -23.75,12.81201c-12.22,6.111 -13.64801,7.68802 -10.38901,11.46802c1.557,1.806 13.72202,21.31198 15.64102,25.07898c0.701,1.375 3.615,6.1 6.478,10.5c6.777,10.418 10.50899,16.429 15.52499,25c2.252,3.85 4.96,8.35 6.017,10c1.057,1.65 2.847,4.575 3.978,6.5c1.131,1.925 2.86499,4.85 3.85199,6.5c2.961,4.945 5.48198,4.41998 17.68898,-3.68402c6.027,-4.002 11.40901,-7.62696 11.95901,-8.05396c0.55,-0.427 4.6,-3.24505 9,-6.26105c4.4,-3.017 10.378,-7.117 13.284,-9.112c2.906,-1.996 7.70002,-5.48697 10.65302,-7.75897c2.954,-2.271 6.36402,-4.805 7.58002,-5.63c1.215,-0.825 3.65996,-2.625 5.43396,-4c1.773,-1.375 4.491,-3.4 6.039,-4.5c1.548,-1.1 3.54003,-2.675 4.42603,-3.5c0.886,-0.825 4.75498,-4.13098 8.59698,-7.34698c19.706,-16.492 46.54001,-41.917 62.83801,-59.539c2.668,-2.884 5.04402,-5.05299 5.27802,-4.81799c0.235,0.235 0.40899,42.73799 0.38599,94.45099c-0.022,51.713 0.23898,94.75 0.57898,95.638c0.559,1.457 5.54301,1.61499 50.90601,1.61499c44.932,0 50.35101,-0.16803 50.89301,-1.58203c0.334,-0.87 0.60699,-43.84494 0.60699,-95.49994c0,-61.945 0.34003,-93.91803 1.00003,-93.91803c0.55,0 1,0.35198 1,0.78198c0,0.879 34.80802,35.65801 42.41302,42.37701c2.701,2.388 6.076,5.39699 7.5,6.68799c1.423,1.291 4.80499,4.216 7.51599,6.5c2.712,2.284 7.033,6.06602 9.604,8.40302c2.571,2.337 4.94198,4.25 5.26898,4.25c0.327,0 1.79902,1.116 3.27002,2.479c9.577,8.875 54.72298,40.99899 72.72198,51.745c5.916,3.532 7.112,3.91199 9.25,2.93799c1.351,-0.616 2.45599,-1.65802 2.45599,-2.31702c0,-0.659 1.97603,-4.15597 4.39203,-7.77197c4.421,-6.616 12.60797,-19.996 12.60797,-20.604c0,-0.18 1.8,-3.03798 4,-6.34998c2.2,-3.312 4,-6.23001 4,-6.48401c0,-0.254 3.825,-6.60202 8.5,-14.10602c4.675,-7.505 8.5,-13.83597 8.5,-14.06897c0,-0.234 2.49402,-4.10801 5.54102,-8.60901c3.048,-4.502 5.404,-8.89599 5.237,-9.76599c-0.305,-1.582 -2.18301,-2.767 -15.27802,-9.633c-3.85,-2.018 -7.45,-4.014 -8,-4.435c-0.55,-0.42 -4.15,-2.47101 -8,-4.55701c-3.85,-2.087 -8.8,-4.78803 -11,-6.00403c-2.2,-1.215 -7.15,-3.91697 -11,-6.00397c-3.85,-2.087 -8.8,-4.91901 -11,-6.29401c-2.2,-1.375 -6.43898,-3.838 -9.41998,-5.474c-2.981,-1.637 -6.96703,-4.02504 -8.85803,-5.30804c-1.89,-1.283 -5.75098,-3.5 -8.57898,-4.927c-2.829,-1.428 -6.94301,-3.68395 -9.14301,-5.01495c-2.2,-1.331 -5.35,-3.11604 -7,-3.96704c-1.65,-0.852 -4.67502,-2.542 -6.72302,-3.758c-2.047,-1.215 -8.347,-4.87497 -14,-8.13397c-5.652,-3.259 -10.42699,-6.296 -10.60999,-6.75c-0.184,-0.454 -0.713,-0.82501 -1.177,-0.82501c-0.464,0 -4.58899,-2.306 -9.16699,-5.125c-15.82,-9.74 -21.02898,-12.875 -21.39398,-12.875c-0.201,0 -2.96801,-1.74702 -6.14801,-3.88202c-3.179,-2.135 -13.02999,-8.621 -21.89099,-14.414c-8.86,-5.792 -16.40004,-11.28798 -16.75504,-12.21198c-0.355,-0.925 -0.64903,-31.90097 -0.65503,-68.83698c-0.01,-67.972 0.80502,-115.65503 1.97702,-115.65503c0.353,0 1.20405,1.55497 1.89105,3.45697c0.688,1.901 6.06499,11.79504 11.95099,21.98804c5.886,10.193 11.37799,19.77497 12.20599,21.29297c0.828,1.519 2.965,4.92201 4.75,7.56201c1.785,2.64 3.245,5.01701 3.245,5.28101c0,0.53 12.52298,19.46101 19.13098,28.91901c12.372,17.711 42.30802,56.583 50.44202,65.5c1.756,1.925 7.84898,8.675 13.53998,15c18.684,20.766 38.42903,40.971 52.73303,53.961c5.124,4.653 10.323,9.378 11.552,10.5c2.11,1.924 12.11999,10.78299 17.60199,15.57599c3.978,3.479 20.96701,17.18503 29.69501,23.95703c19.799,15.364 44.87799,32.95195 66.80499,46.85095c2.75,1.743 5.675,3.62006 6.5,4.17206c6.407,4.282 26.13595,16.291 28.77295,17.513c3.358,1.555 7.22705,0.68198 7.22705,-1.63202c0,-0.567 1.125,-2.50602 2.5,-4.30902c1.375,-1.803 2.5,-3.59201 2.5,-3.97601c0,-0.384 1.8,-3.13498 4,-6.11298c2.2,-2.978 4,-5.678 4,-6c0,-0.322 1.688,-2.945 3.75,-5.828c2.063,-2.884 4.29897,-6.12697 4.96997,-7.20697c7.073,-11.387 8.95309,-14.23605 10.49109,-15.90405c0.984,-1.066 1.78894,-2.24396 1.78894,-2.61896c0,-0.613 15.76405,-25.02402 17.72205,-27.44202c0.445,-0.55 2.36299,-3.475 4.26099,-6.5c1.898,-3.025 3.69101,-5.725 3.98401,-6c2.219,-2.082 7.22799,-10.76097 7.36499,-12.75897c0.168,-2.463 -2.19003,-4.09904 -16.83203,-11.68604c-1.65,-0.855 -4.8,-2.60399 -7,-3.88599c-2.2,-1.281 -6.475,-3.70002 -9.5,-5.37402c-7.096,-3.928 -31.69995,-18.02996 -35.16895,-20.15796c-1.468,-0.9 -7.093,-4.25304 -12.5,-7.44904c-27.272,-16.124 -78.83005,-51.11202 -88.33105,-59.94202c-0.825,-0.767 -3.3,-2.70397 -5.5,-4.30597c-8.17,-5.947 -31.81398,-25.008 -36.51898,-29.44c-0.876,-0.825 -5.15501,-4.65 -9.51001,-8.5c-16.135,-14.265 -51.93401,-49.682 -59.12201,-58.492c-1.567,-1.92 -4.199,-4.86497 -5.849,-6.54297c-1.65,-1.679 -6.12602,-6.85803 -9.94702,-11.50903c-3.822,-4.651 -8.23699,-9.844 -9.81299,-11.539c-1.576,-1.696 -3.62498,-4.22599 -4.55298,-5.62299c-0.928,-1.396 -5.537,-7.65902 -10.242,-13.91602c-11.204,-14.902 -20.71703,-28.42199 -32.98303,-46.87799c-0.843,-1.268 -9.158,-15.48398 -14.034,-23.99298c-0.785,-1.371 -2.21598,-3.56901 -3.17798,-4.88501c-3.988,-5.45 -12.49602,-5.12201 132.69098,-5.12201c88.024,0 134.65299,-0.34302 135.05499,-0.99402c1.316,-2.129 0.082,-105.82797 -1.276,-107.18597c-0.447,-0.447 -68.51697,-0.92702 -151.26697,-1.06702l-150.453,-0.25299l-0.51602,-76c-0.283,-41.8 -0.621,-76.113 -0.75,-76.25c-0.129,-0.137 -22.97301,-0.25 -50.76501,-0.25c-39.508,0 -50.63401,0.273 -51.00201,1.25z"></path></clipPath></defs><g style="mix-blend-mode:normal"><g clip-path="url(#mrxibtcs744s43bc_stroke_clip_path)"><path id="mrxibtcs744s43bc_stroke_path" d="M409.29129,1.25c-0.259,0.688 -0.58199,35 -0.71899,76.25l-0.24799,75l-152,0.5l-151.99999,0.5v54v54l134.75001,0.25403c74.112,0.139 134.74998,0.51897 134.74998,0.84497c0,0.782 -4.96898,9.80798 -8.32898,15.13098c-1.469,2.327 -2.67102,4.47403 -2.67102,4.77203c0,0.297 -1.05402,2.21898 -2.34302,4.26898c-1.289,2.051 -4.30796,6.879 -6.70996,10.729c-4.386,7.031 -23.539,34.73202 -27.388,39.61102c-1.132,1.436 -2.73402,3.61997 -3.55902,4.85297c-1.482,2.215 -14.64799,18.69199 -17.18799,21.51099c-0.722,0.8 -1.76201,2.04203 -2.31201,2.75903c-0.55,0.717 -4.503,5.438 -8.785,10.492c-20.487,24.182 -45.08799,49.28898 -74.37199,75.90198c-9.563,8.69 -33.57199,28.47401 -43.84399,36.12701c-0.55,0.41 -3.7,2.76298 -7,5.22998c-7.126,5.327 -13.68799,10.10202 -18.49899,13.46002c-1.925,1.344 -5.75,4.05501 -8.5,6.02301c-3.878,2.777 -25.32801,17.20197 -36.50001,24.54797c-11.252,7.397 -37.937,23.77801 -51,31.30701c-1.925,1.109 -5.3,3.05802 -7.5,4.33002c-2.2,1.273 -4.9,2.76496 -6,3.31696c-1.1,0.551 -6.05,3.25502 -11,6.00702c-4.95,2.753 -13.66799,7.36798 -19.37399,10.25598c-5.706,2.887 -10.598,5.83302 -10.871,6.54602c-0.274,0.712 0.18499,2.066 1.01999,3.008c1.848,2.085 14.72501,21.21604 14.72501,21.87604c0,0.259 1.125,1.94499 2.5,3.74799c1.375,1.803 2.5,3.74999 2.5,4.32599c0,0.577 0.675,1.308 1.5,1.625c0.825,0.316 1.5,1.05797 1.5,1.64697c0,0.59 0.841,2.29101 1.868,3.78101c3.782,5.484 13.62301,20.78501 14.92601,23.20801c0.74,1.374 1.91999,3.174 2.62299,4c0.704,0.826 1.55799,2.29001 1.89999,3.25201c0.341,0.962 1.08401,1.75 1.65201,1.75c0.567,0 1.03101,0.48898 1.03101,1.08698c0,1.215 6.079,10.22603 7.25,10.74603c0.413,0.184 0.75,0.81601 0.75,1.40601c0,0.59 1.125,2.54698 2.5,4.34998c1.375,1.803 2.5,3.68803 2.5,4.18903c0,0.502 0.889,1.71597 1.974,2.69897c1.086,0.983 2.27499,2.73099 2.64099,3.88599c1.257,3.96 4.69702,7.63702 7.14502,7.63702c2.343,0 11.42,-4.67101 12.073,-6.21301c0.184,-0.433 0.71198,-0.78699 1.17398,-0.78699c0.803,0 17.40901,-9.613 19.49301,-11.284c0.55,-0.441 3.31899,-2.24503 6.15399,-4.00903c11.007,-6.849 14.81201,-9.26197 16.88001,-10.70697c1.181,-0.825 3.906,-2.71197 6.056,-4.19397c2.151,-1.482 6.16,-4.30702 8.91,-6.27802c2.75,-1.971 6.125,-4.34602 7.5,-5.27802c8.946,-6.062 57.79,-44.511 60.5,-47.625c0.55,-0.632 3.7,-3.38498 7,-6.11798c23.611,-19.557 72.15898,-69.82604 95.75798,-99.15204c0.683,-0.849 2.163,-2.51297 3.289,-3.69897c1.125,-1.186 4.25403,-5.08101 6.95203,-8.65601c2.699,-3.575 8.41498,-11.133 12.70398,-16.797c4.288,-5.663 7.797,-10.68802 7.797,-11.16602c0,-0.479 0.36698,-1.01998 0.81598,-1.20398c0.772,-0.315 6.42204,-8.23401 16.29004,-22.83301c2.417,-3.575 4.73098,-6.65001 5.14398,-6.83301c0.413,-0.184 0.75,-0.73702 0.75,-1.23102c0,-0.494 2.25,-4.24697 5,-8.33997c2.75,-4.094 5,-7.89004 5,-8.43604c0,-0.546 0.341,-1.14297 0.758,-1.32697c0.791,-0.347 6.96102,-10.68001 13.03802,-21.83301c1.948,-3.575 3.80399,-6.725 4.12299,-7c0.663,-0.571 2.292,-3.468 7.729,-13.75c2.108,-3.987 4.17502,-7.25 4.59302,-7.25c0.417,0 0.76695,12.263 0.77795,27.25c0.01,14.987 0.08903,55.825 0.17603,90.75c0.086,34.925 -0.16803,64.4 -0.56403,65.5c-0.61,1.691 -24.16598,17.88398 -43.63098,29.99298c-3.025,1.882 -6.04401,3.89099 -6.70801,4.46399c-0.664,0.574 -1.564,1.05104 -2,1.06104c-0.756,0.018 -8.60602,4.959 -10.86902,6.841c-0.592,0.493 -2.05196,1.20598 -3.24396,1.58398c-1.192,0.378 -2.73203,1.23001 -3.42303,1.89301c-0.691,0.662 -8.00598,5.19302 -16.25598,10.06702c-8.25,4.875 -16.125,9.58999 -17.5,10.47699c-1.375,0.887 -3.625,2.17498 -5,2.86298c-1.375,0.688 -4.075,2.209 -6,3.38c-1.925,1.172 -6.875,3.95998 -11,6.19598c-4.125,2.237 -8.09501,4.65502 -8.82101,5.37402c-0.727,0.719 -1.76398,1.30701 -2.30298,1.30701c-0.838,0 -13.24099,6.93799 -23.37599,13.07599c-1.65,0.999 -4.125,2.44902 -5.5,3.22302c-1.375,0.773 -7.9,4.52698 -14.5,8.34198c-6.6,3.815 -17.288,9.58001 -23.75,12.81201c-12.22,6.111 -13.64801,7.68802 -10.38901,11.46802c1.557,1.806 13.72202,21.31198 15.64102,25.07898c0.701,1.375 3.615,6.1 6.478,10.5c6.777,10.418 10.50899,16.429 15.52499,25c2.252,3.85 4.96,8.35 6.017,10c1.057,1.65 2.847,4.575 3.978,6.5c1.131,1.925 2.86499,4.85 3.85199,6.5c2.961,4.945 5.48198,4.41998 17.68898,-3.68402c6.027,-4.002 11.40901,-7.62696 11.95901,-8.05396c0.55,-0.427 4.6,-3.24505 9,-6.26105c4.4,-3.017 10.378,-7.117 13.284,-9.112c2.906,-1.996 7.70002,-5.48697 10.65302,-7.75897c2.954,-2.271 6.36402,-4.805 7.58002,-5.63c1.215,-0.825 3.65996,-2.625 5.43396,-4c1.773,-1.375 4.491,-3.4 6.039,-4.5c1.548,-1.1 3.54003,-2.675 4.42603,-3.5c0.886,-0.825 4.75498,-4.13098 8.59698,-7.34698c19.706,-16.492 46.54001,-41.917 62.83801,-59.539c2.668,-2.884 5.04402,-5.05299 5.27802,-4.81799c0.235,0.235 0.40899,42.73799 0.38599,94.45099c-0.022,51.713 0.23898,94.75 0.57898,95.638c0.559,1.457 5.54301,1.61499 50.90601,1.61499c44.932,0 50.35101,-0.16803 50.89301,-1.58203c0.334,-0.87 0.60699,-43.84494 0.60699,-95.49994c0,-61.945 0.34003,-93.91803 1.00003,-93.91803c0.55,0 1,0.35198 1,0.78198c0,0.879 34.80802,35.65801 42.41302,42.37701c2.701,2.388 6.076,5.39699 7.5,6.68799c1.423,1.291 4.80499,4.216 7.51599,6.5c2.712,2.284 7.033,6.06602 9.604,8.40302c2.571,2.337 4.94198,4.25 5.26898,4.25c0.327,0 1.79902,1.116 3.27002,2.479c9.577,8.875 54.72298,40.99899 72.72198,51.745c5.916,3.532 7.112,3.91199 9.25,2.93799c1.351,-0.616 2.45599,-1.65802 2.45599,-2.31702c0,-0.659 1.97603,-4.15597 4.39203,-7.77197c4.421,-6.616 12.60797,-19.996 12.60797,-20.604c0,-0.18 1.8,-3.03798 4,-6.34998c2.2,-3.312 4,-6.23001 4,-6.48401c0,-0.254 3.825,-6.60202 8.5,-14.10602c4.675,-7.505 8.5,-13.83597 8.5,-14.06897c0,-0.234 2.49402,-4.10801 5.54102,-8.60901c3.048,-4.502 5.404,-8.89599 5.237,-9.76599c-0.305,-1.582 -2.18301,-2.767 -15.27802,-9.633c-3.85,-2.018 -7.45,-4.014 -8,-4.435c-0.55,-0.42 -4.15,-2.47101 -8,-4.55701c-3.85,-2.087 -8.8,-4.78803 -11,-6.00403c-2.2,-1.215 -7.15,-3.91697 -11,-6.00397c-3.85,-2.087 -8.8,-4.91901 -11,-6.29401c-2.2,-1.375 -6.43898,-3.838 -9.41998,-5.474c-2.981,-1.637 -6.96703,-4.02504 -8.85803,-5.30804c-1.89,-1.283 -5.75098,-3.5 -8.57898,-4.927c-2.829,-1.428 -6.94301,-3.68395 -9.14301,-5.01495c-2.2,-1.331 -5.35,-3.11604 -7,-3.96704c-1.65,-0.852 -4.67502,-2.542 -6.72302,-3.758c-2.047,-1.215 -8.347,-4.87497 -14,-8.13397c-5.652,-3.259 -10.42699,-6.296 -10.60999,-6.75c-0.184,-0.454 -0.713,-0.82501 -1.177,-0.82501c-0.464,0 -4.58899,-2.306 -9.16699,-5.125c-15.82,-9.74 -21.02898,-12.875 -21.39398,-12.875c-0.201,0 -2.96801,-1.74702 -6.14801,-3.88202c-3.179,-2.135 -13.02999,-8.621 -21.89099,-14.414c-8.86,-5.792 -16.40004,-11.28798 -16.75504,-12.21198c-0.355,-0.925 -0.64903,-31.90097 -0.65503,-68.83698c-0.01,-67.972 0.80502,-115.65503 1.97702,-115.65503c0.353,0 1.20405,1.55497 1.89105,3.45697c0.688,1.901 6.06499,11.79504 11.95099,21.98804c5.886,10.193 11.37799,19.77497 12.20599,21.29297c0.828,1.519 2.965,4.92201 4.75,7.56201c1.785,2.64 3.245,5.01701 3.245,5.28101c0,0.53 12.52298,19.46101 19.13098,28.91901c12.372,17.711 42.30802,56.583 50.44202,65.5c1.756,1.925 7.84898,8.675 13.53998,15c18.684,20.766 38.42903,40.971 52.73303,53.961c5.124,4.653 10.323,9.378 11.552,10.5c2.11,1.924 12.11999,10.78299 17.60199,15.57599c3.978,3.479 20.96701,17.18503 29.69501,23.95703c19.799,15.364 44.87799,32.95195 66.80499,46.85095c2.75,1.743 5.675,3.62006 6.5,4.17206c6.407,4.282 26.13595,16.291 28.77295,17.513c3.358,1.555 7.22705,0.68198 7.22705,-1.63202c0,-0.567 1.125,-2.50602 2.5,-4.30902c1.375,-1.803 2.5,-3.59201 2.5,-3.97601c0,-0.384 1.8,-3.13498 4,-6.11298c2.2,-2.978 4,-5.678 4,-6c0,-0.322 1.688,-2.945 3.75,-5.828c2.063,-2.884 4.29897,-6.12697 4.96997,-7.20697c7.073,-11.387 8.95309,-14.23605 10.49109,-15.90405c0.984,-1.066 1.78894,-2.24396 1.78894,-2.61896c0,-0.613 15.76405,-25.02402 17.72205,-27.44202c0.445,-0.55 2.36299,-3.475 4.26099,-6.5c1.898,-3.025 3.69101,-5.725 3.98401,-6c2.219,-2.082 7.22799,-10.76097 7.36499,-12.75897c0.168,-2.463 -2.19003,-4.09904 -16.83203,-11.68604c-1.65,-0.855 -4.8,-2.60399 -7,-3.88599c-2.2,-1.281 -6.475,-3.70002 -9.5,-5.37402c-7.096,-3.928 -31.69995,-18.02996 -35.16895,-20.15796c-1.468,-0.9 -7.093,-4.25304 -12.5,-7.44904c-27.272,-16.124 -78.83005,-51.11202 -88.33105,-59.94202c-0.825,-0.767 -3.3,-2.70397 -5.5,-4.30597c-8.17,-5.947 -31.81398,-25.008 -36.51898,-29.44c-0.876,-0.825 -5.15501,-4.65 -9.51001,-8.5c-16.135,-14.265 -51.93401,-49.682 -59.12201,-58.492c-1.567,-1.92 -4.199,-4.86497 -5.849,-6.54297c-1.65,-1.679 -6.12602,-6.85803 -9.94702,-11.50903c-3.822,-4.651 -8.23699,-9.844 -9.81299,-11.539c-1.576,-1.696 -3.62498,-4.22599 -4.55298,-5.62299c-0.928,-1.396 -5.537,-7.65902 -10.242,-13.91602c-11.204,-14.902 -20.71703,-28.42199 -32.98303,-46.87799c-0.843,-1.268 -9.158,-15.48398 -14.034,-23.99298c-0.785,-1.371 -2.21598,-3.56901 -3.17798,-4.88501c-3.988,-5.45 -12.49602,-5.12201 132.69098,-5.12201c88.024,0 134.65299,-0.34302 135.05499,-0.99402c1.316,-2.129 0.082,-105.82797 -1.276,-107.18597c-0.447,-0.447 -68.51697,-0.92702 -151.26697,-1.06702l-150.453,-0.25299l-0.51602,-76c-0.283,-41.8 -0.621,-76.113 -0.75,-76.25c-0.129,-0.137 -22.97301,-0.25 -50.76501,-0.25c-39.508,0 -50.63401,0.273 -51.00201,1.25z" fill="none" stroke="rgb(0, 0, 0)" stroke-width="2" stroke-linecap="butt" stroke-linejoin="miter" stroke-dasharray="0 0" stroke-opacity="0"></path><defs><mask id="mrxibtcs744s43bc_gradient_mask"></mask></defs><rect x="-920.1644" y="-837" width="2760.4932" height="2511" fill="url(#mrxibtcs744s43bcps0)" mask="url(#mrxibtcs744s43bc_gradient_mask)"></rect></g></g></g></g></g></g></g></g></g></g></g></g><animateTransform href="#mrxibtcs744s43bc" attributeName="transform" type="translate" values="459.0822 417.5;459.0822 417.5;459.0822 417.5;459.0822 417.5" dur="1.16s" repeatCount="indefinite" calcMode="spline" keyTimes="0;0.09;0.91;1" keySplines="0.5 0.35 0.15 1;0.5 0.35 0.15 1;0.5 0.35 0.15 1" additive="sum" fill="freeze"></animateTransform><animateTransform href="#mrxibtcs744s43bc" attributeName="transform" type="scale" values="0 0;0 0;1 1;1 1" dur="1.16s" repeatCount="indefinite" calcMode="spline" keyTimes="0;0.09;0.91;1" keySplines="0.5 0.35 0.15 1;0.5 0.35 0.15 1;0.5 0.35 0.15 1" additive="sum" fill="freeze"></animateTransform><animateTransform href="#mrxibtcs744s43bc" attributeName="transform" type="translate" values="-459.0822 -417.5;-459.0822 -417.5;-459.0822 -417.5;-459.0822 -417.5" dur="1.16s" repeatCount="indefinite" calcMode="spline" keyTimes="0;0.09;0.91;1" keySplines="0.5 0.35 0.15 1;0.5 0.35 0.15 1;0.5 0.35 0.15 1" additive="sum" fill="freeze"></animateTransform></svg>